# xmcd
#
# Track frame offsets: 
#        150
#        20178
#        37630
#        48461
#        64267
#        87169
#        116333
#        133007
#        148972
#
# Disc length: 2211 seconds
#
# Revision: 3
# Processed by: cddbd v1.5.2PL0 Copyright (c) Steve Scherf et al.
# Submitted via: ExactAudioCopy v1.0b1
#
DISCID=7c08a109
DTITLE=Gram Parsons - Grievous Angel
DYEAR=1974
DGENRE=Country Rock
TTITLE0=Return Of The Grievous Angel
TTITLE1=Hearts On Fire
TTITLE2=I Can't Dance
TTITLE3=Brass Buttons
TTITLE4=$1000 Wedding
TTITLE5=Medley Live From Northern Quebec (a) Cash On The Barrelhead (b
TTITLE5=) Hickory Wind
TTITLE6=Love Hurts
TTITLE7=Las Vegas
TTITLE8=In My Hour Of Darkness
EXTD=
EXTT0=
EXTT1=
EXTT2=
EXTT3=
EXTT4=
EXTT5=
EXTT6=
EXTT7=
EXTT8=
PLAYORDER=
